HIERARCHY
ROOT root
{
	OFFSET 0.000000 0.000000 0.000000
	CHANNELS 6 Xposition Yposition Zposition Zrotation Yrotation Xrotation
	JOINT lhip
	{
		OFFSET 0.058581 -0.082280 -0.017664
		CHANNELS 3 Zrotation Yrotation Xrotation
		JOINT lknee
		{
			OFFSET 0.043451 -0.386469 0.008037
			CHANNELS 3 Zrotation Yrotation Xrotation
			JOINT lankle
			{
				OFFSET -0.014790 -0.426874 -0.037428
				CHANNELS 3 Zrotation Yrotation Xrotation
				JOINT ltoe
				{
					OFFSET 0.041054 -0.060286 0.122042
					CHANNELS 3 Zrotation Yrotation Xrotation
					End Site
					{
						OFFSET 0.000000 0.000000 0.000000
					}
				}
			}
		}
	}
	JOINT rhip
	{
		OFFSET -0.060310 -0.090513 -0.013543
		CHANNELS 3 Zrotation Yrotation Xrotation
		JOINT rknee
		{
			OFFSET -0.043257 -0.383688 -0.004843
			CHANNELS 3 Zrotation Yrotation Xrotation
			JOINT rankle
			{
				OFFSET 0.019056 -0.420046 -0.034562
				CHANNELS 3 Zrotation Yrotation Xrotation
				JOINT rtoe
				{
					OFFSET -0.034840 -0.062106 0.130323
					CHANNELS 3 Zrotation Yrotation Xrotation
					End Site
					{
						OFFSET 0.000000 0.000000 0.000000
					}
				}
			}
		}
	}
	JOINT lowerback
	{
		OFFSET 0.004439 0.124404 -0.038385
		CHANNELS 3 Zrotation Yrotation Xrotation
		JOINT upperback
		{
			OFFSET 0.004488 0.137956 0.026820
			CHANNELS 3 Zrotation Yrotation Xrotation
			JOINT chest
			{
				OFFSET -0.002265 0.056032 0.002855
				CHANNELS 3 Zrotation Yrotation Xrotation
				JOINT lowerneck
				{
					OFFSET -0.013390 0.211636 -0.033468
					CHANNELS 3 Zrotation Yrotation Xrotation
					JOINT upperneck
					{
						OFFSET 0.010113 0.088937 0.050410
						CHANNELS 3 Zrotation Yrotation Xrotation
						End Site
						{
							OFFSET 0.000000 0.000000 0.000000
						}
					}
				}
				JOINT lclavicle
				{
					OFFSET 0.071702 0.114000 -0.018898
					CHANNELS 3 Zrotation Yrotation Xrotation
					JOINT lshoulder
					{
						OFFSET 0.122921 0.045205 -0.019046
						CHANNELS 3 Zrotation Yrotation Xrotation
						JOINT lelbow
						{
							OFFSET 0.255332 -0.015649 -0.022946
							CHANNELS 3 Zrotation Yrotation Xrotation
							JOINT lwrist
							{
								OFFSET 0.265709 0.012698 -0.007375
								CHANNELS 3 Zrotation Yrotation Xrotation
								End Site
								{
									OFFSET 0.000000 0.000000 0.000000
								}
							}
						}
					}
				}
				JOINT rclavicle
				{
					OFFSET -0.082954 0.112472 -0.023707
					CHANNELS 3 Zrotation Yrotation Xrotation
					JOINT rshoulder
					{
						OFFSET -0.113228 0.046853 -0.008472
						CHANNELS 3 Zrotation Yrotation Xrotation
						JOINT relbow
						{
							OFFSET -0.260127 -0.014369 -0.031269
							CHANNELS 3 Zrotation Yrotation Xrotation
							JOINT rwrist
							{
								OFFSET -0.269108 0.006794 -0.006027
								CHANNELS 3 Zrotation Yrotation Xrotation
								End Site
								{
									OFFSET 0.000000 0.000000 0.000000
								}
							}
						}
					}
				}
			}
		}
	}
}
MOTION
Frames: 9
Frame Time: 0.033333
0.618629 0.215681 1.003025 88.004462 0.019515 90.972402 1.920459 2.007388 5.210647 -3.393012 -4.806439 -0.919151 2.186224 7.793234 -6.915728 0.000000 -0.000000 0.000000 -2.361008 -3.179440 -2.883647 1.315292 -3.684487 10.108310 4.389140 -8.838578 -6.708851 0.000000 -0.000000 0.000000 -1.763949 0.837980 3.648789 0.419657 -0.254459 -2.748816 0.891118 -0.878138 1.286944 5.999536 8.633614 -7.938217 0.503522 3.351843 11.817305 -27.557838 4.738380 -0.860606 -57.439760 -8.976140 9.822676 4.873165 -22.609249 9.122538 -4.010990 -3.772035 -3.530652 29.914552 -0.279576 1.333418 53.983570 8.080091 15.488184 -9.702342 17.172597 -3.240020 5.920132 1.367462 -2.923520 
0.617299 0.215187 1.002999 87.831655 0.034828 90.850122 1.975483 1.918529 5.220737 -3.476322 -4.854975 -0.796130 2.398249 7.988075 -6.694748 0.000000 -0.000000 0.000000 -2.353310 -3.055419 -2.832791 1.389191 -3.708172 10.021670 4.316467 -8.899477 -6.615050 0.000000 -0.000000 0.000000 -1.838893 0.835607 3.724852 0.464089 -0.317983 -2.322810 0.954360 -0.842151 1.184278 5.795342 8.548348 -7.868444 0.626573 3.426625 11.497549 -27.336161 4.236882 -0.567131 -57.622191 -9.210554 9.802452 5.158991 -22.666503 9.016258 -4.369222 -3.584893 -3.948287 29.728121 0.120314 1.681068 54.180286 8.129867 15.361320 -10.110415 17.394760 -3.314216 6.135257 1.182734 -3.046651 
0.616279 0.214545 1.003176 87.564150 0.008835 90.923641 1.949465 1.889412 5.126126 -3.478254 -4.789426 -0.778300 2.414499 8.099904 -6.475296 0.000000 -0.000000 0.000000 -2.332642 -3.099227 -3.064488 1.364567 -3.456532 10.097080 4.352626 -8.828207 -6.545689 0.000000 -0.000000 0.000000 -1.872887 0.865239 3.758582 0.477175 -0.355195 -2.222360 0.901699 -0.889308 1.315636 5.831623 8.444970 -7.851728 0.549390 3.297352 11.648881 -27.262269 4.365911 -0.610085 -57.520819 -9.258168 9.899763 5.166472 -23.209674 9.050782 -4.160502 -3.521199 -4.087679 29.742693 0.093432 1.465813 54.130002 8.125649 15.515560 -9.949202 17.560975 -3.219018 6.146189 1.083264 -3.082882 
0.614837 0.213974 1.003414 87.438454 0.060843 90.935206 2.001255 1.900115 4.962689 -3.427583 -4.674550 -0.638342 2.366982 8.113827 -6.522981 0.000000 -0.000000 0.000000 -2.229696 -3.096930 -3.112457 1.385535 -3.360737 9.949953 4.396489 -8.849339 -6.500830 0.000000 -0.000000 0.000000 -1.811494 0.872496 4.027801 0.498127 -0.353812 -2.227860 0.918316 -0.993339 1.393327 5.769958 8.760905 -8.133495 0.629407 3.408894 11.886237 -27.178383 4.332948 -0.769881 -57.541090 -9.428866 9.963774 5.135474 -23.166268 9.088924 -3.942037 -3.588302 -4.102793 29.756080 0.001860 1.379748 54.030931 8.168890 15.615145 -9.794929 17.741172 -3.271542 5.974931 1.155447 -3.264816 
0.612491 0.213578 1.003613 87.568571 0.017647 91.068360 1.945403 1.589161 4.531504 -3.404208 -4.576417 -0.432732 2.424475 8.173964 -6.425978 0.000000 -0.000000 0.000000 -2.218201 -2.913519 -3.469326 1.379175 -3.531831 10.080572 4.377620 -9.023311 -6.410143 0.000000 -0.000000 0.000000 -1.872613 0.804613 4.413175 0.513715 -0.518170 -2.428085 0.946514 -1.054267 1.315311 5.729547 8.748884 -8.185261 0.620458 3.471378 11.838010 -27.187362 4.221746 -0.666932 -57.405339 -9.556956 9.998396 5.215314 -23.263751 8.920669 -3.979978 -3.596686 -4.323502 29.771914 0.095350 1.366754 54.069411 8.205795 15.667568 -9.848115 17.691159 -3.320805 5.886577 1.251020 -3.381936 
0.611432 0.213015 1.003646 87.370713 0.036705 91.154491 2.002187 1.610221 4.405653 -3.423653 -4.424777 -0.477174 2.437219 8.218943 -6.451953 0.000000 -0.000000 0.000000 -2.181480 -2.902550 -3.735730 1.432906 -3.381908 10.233048 4.393821 -8.952757 -6.374000 0.000000 -0.000000 0.000000 -1.905002 0.833124 4.454508 0.601885 -0.503094 -2.383997 0.979274 -1.119303 1.340076 5.875258 8.681812 -7.992267 0.508871 3.570308 12.139439 -27.265381 4.148419 -0.726317 -57.355070 -9.605324 10.089955 5.332693 -23.090526 8.784434 -3.986173 -3.680527 -4.175214 29.808460 0.100555 1.438113 53.988234 8.249616 15.728661 -9.800880 17.646270 -3.415592 5.913639 1.184883 -3.476508 
0.610244 0.212461 1.003935 87.234542 -0.003589 91.176921 2.033716 1.735876 4.313973 -3.514385 -4.390483 -0.389567 2.479690 8.181937 -6.501545 0.000000 -0.000000 0.000000 -2.133566 -2.916405 -3.877662 1.354293 -3.209285 10.328644 4.404447 -8.878222 -6.387070 0.000000 -0.000000 0.000000 -1.969093 0.904226 4.770536 0.626682 -0.518673 -2.380227 0.980316 -1.092575 1.232010 5.932754 8.605547 -7.784615 0.661696 3.490561 11.912429 -27.283789 4.153847 -0.946308 -57.153160 -9.557148 10.022361 5.045876 -23.072246 8.975278 -4.076652 -3.609103 -4.014074 30.067387 -0.098569 1.288921 53.815185 8.066080 15.646747 -9.879881 17.834966 -3.364940 5.934670 1.178571 -3.124474 
0.609599 0.212156 1.003972 87.358308 -0.002673 90.979760 2.092015 1.858621 4.467438 -3.523709 -4.535944 -0.360393 2.374784 8.157700 -6.423168 0.000000 -0.000000 0.000000 -2.153151 -2.586266 -3.591073 1.457754 -3.301341 10.195177 4.280312 -9.183417 -6.403300 0.000000 -0.000000 0.000000 -1.825834 0.629724 5.056451 0.626986 -0.577385 -2.121686 0.932920 -1.115140 1.300940 5.944823 8.562440 -7.725292 0.694964 3.437534 11.779570 -27.376887 4.110262 -0.825301 -57.059135 -9.762021 9.878323 5.100715 -23.153671 8.887618 -4.172078 -3.480884 -4.121813 30.005538 0.071115 1.088468 53.856804 8.070549 15.711488 -9.792117 17.689682 -3.358561 6.039354 1.075181 -3.104776 
0.608366 0.211876 1.004056 87.339948 -0.036409 90.787937 2.091821 1.960105 4.572562 -3.519011 -4.609896 -0.316983 2.279074 8.119664 -6.424969 0.000000 -0.000000 0.000000 -2.173921 -2.576982 -3.521565 1.448020 -3.313167 10.322699 4.306619 -9.129785 -6.409065 0.000000 -0.000000 0.000000 -1.697595 0.579595 5.384892 0.646975 -0.659298 -1.898781 0.907446 -1.108945 1.449917 6.212981 8.563067 -7.514538 0.811122 3.391508 11.950895 -27.619375 3.961924 -0.944544 -56.850096 -9.951455 9.885910 5.092853 -23.159915 8.755763 -3.847658 -3.633517 -3.745393 30.004255 0.161079 1.025269 53.741375 8.236938 15.621525 -9.786631 17.682906 -3.611390 5.948377 1.103956 -3.095721 
